# xmcd CD database file
#
# Track frame offsets:
#	150
#	12988
#	23605
#	38775
#	49665
#	55038
#	69676
#	84392
#	99141
#	112706
#	127757
#	136613
#	152508
#	167863
#	181697
#	190140
#	203714
#	217179
#	230849
#	242239
#
# Disc length: 3457 seconds
#
# Revision: 2
# Processed by: cddbd v1.5.2PL0 Copyright (c) Steve Scherf et al.
# Submitted via: CDex 2.09
#
DISCID=f90d7f14
DTITLE=Paul Robeson - Ol' Man River
DYEAR=1999
DGENRE=Gospel
TTITLE0=Swing Low Sweet Chariot
TTITLE1=Nothin
TTITLE2=Lazy Bones
TTITLE3=Deep River
TTITLE4=Shortnin' Bread
TTITLE5=Shenandoah
TTITLE6=Hush-A-Bye Lullabye
TTITLE7=Little Man, You've Had A Busy Day
TTITLE8=Sometimes I Feel Like A Motherless Child
TTITLE9=All Through The Night
TTITLE10=Joshua Fit De Battle Of Jericho
TTITLE11=Rockin' Chair
TTITLE12=Drink To Me Only With Thine Eyes
TTITLE13=Nobody Knows The Trouble I've Seen
TTITLE14=All God's Chillun Got Wings
TTITLE15=Were You There When They Crucifed My Lord?
TTITLE16=The Canoe Song
TTITLE17=Ma' Curly Headed Baby
TTITLE18=A Perfect Day
TTITLE19=Ol' Man River
EXTD=YEAR: 1999
EXTT0=
EXTT1=
EXTT2=
EXTT3=
EXTT4=
EXTT5=
EXTT6=
EXTT7=
EXTT8=
EXTT9=
EXTT10=
EXTT11=
EXTT12=
EXTT13=
EXTT14=
EXTT15=
EXTT16=
EXTT17=
EXTT18=
EXTT19=
PLAYORDER=
